<svg viewBox="0 0 512 512" xmlns="http://www.w3.org/2000/svg"><g data-name="1"><path d="M257 450a15 15 0 0 1-12.25-6.34L61.57 184.53a15 15 0 0 1-.5-16.56L131 55.1a15 15 0 0 1 12.79-7.1H370.2a15 15 0 0 1 12.8 7.1l70 112.87a15 15 0 0 1-.5 16.56L269.25 443.66A15 15 0 0 1 257 450ZM91.81 175.33 257 409l165.18-233.67L361.85 78H152.14Z" fill="#ffffff" class="fill-000000"></path><path d="M440.17 190.87H73.82a15 15 0 1 1 0-30h366.35a15 15 0 0 1 0 30Z" fill="#ffffff" class="fill-000000"></path><path d="M200.39 190.87A15 15 0 0 1 187 182.6L130.38 69.72a15 15 0 0 1 26.82-13.44l43.19 86.13 43.2-86.13a15 15 0 0 1 26.82 13.44L213.8 182.6a15 15 0 0 1-13.41 8.27Z" fill="#ffffff" class="fill-000000"></path><path d="M313.6 190.87a15 15 0 0 1-13.41-8.27l-56.6-112.88a15 15 0 1 1 26.82-13.44l43.19 86.13 43.2-86.13a15 15 0 1 1 26.81 13.44L327 182.6a15 15 0 0 1-13.4 8.27Z" fill="#ffffff" class="fill-000000"></path><path d="M257 450a15 15 0 0 1-14.66-11.8l-56.6-259.12a15 15 0 0 1 29.31-6.41l41.95 192 41.95-192a15 15 0 1 1 29.3 6.41l-56.6 259.12A15 15 0 0 1 257 450Z" fill="#ffffff" class="fill-000000"></path></g></svg>