<svg viewBox="0 0 512 512" xml:space="preserve" xmlns="http://www.w3.org/2000/svg"><path d="M251.823 446.874h15.852v-.39c99.829-6.058 179.202-89.161 179.202-190.481 0-101.327-79.373-184.43-179.202-190.481-2.478-.151-4.97-.233-7.473-.283-1.396-.038-2.793-.113-4.202-.113s-2.806.075-4.202.113c-2.503.05-4.995.132-7.473.283-99.829 6.051-179.202 89.154-179.202 190.481 0 101.32 79.373 184.423 179.202 190.481v.39h7.498zm38.649-26.936c27.93-27.389 48.229-55.966 60.741-85.55h52.775c-22.972 43.204-64.3 75.222-113.516 85.55zm133.056-163.935c0 19.281-3.314 37.787-9.336 55.042h-54.777c4.719-16.776 7.084-33.83 6.945-51.16-.164-20.859-3.85-40.592-9.713-58.929h57.545a166.774 166.774 0 0 1 9.336 55.047zm-19.539-78.391h-56.273c-16.406-37-40.436-66.691-58.715-85.852 49.87 10.001 91.788 42.215 114.988 85.852zm-136.314-74.077c15.626 15.89 37.78 41.737 54.022 74.076h-54.022v-74.076zm0 97.421h64.138c6.719 18.361 11.047 38.265 11.197 59.249.125 17.186-2.598 34.139-8.027 50.84h-67.308V200.956zm0 133.432h57.847c-12.568 25.778-31.842 50.877-57.847 75.127v-75.127zm-23.35-23.343h-67.308c-5.429-16.701-8.152-33.654-8.027-50.84.151-20.984 4.479-40.888 11.197-59.249h64.137v110.089zm0-133.433h-54.022c16.242-32.339 38.396-58.193 54.022-74.083v74.083zM223.001 91.76c-18.28 19.161-42.31 48.852-58.715 85.852h-56.274c23.198-43.637 65.118-75.851 114.989-85.852zM88.473 256.003c0-19.28 3.315-37.787 9.335-55.047h57.545c-5.862 18.336-9.542 38.069-9.712 58.929-.138 17.33 2.227 34.384 6.945 51.16H97.808a166.739 166.739 0 0 1-9.335-55.042zm19.538 78.385h52.777c12.518 29.584 32.811 58.161 60.747 85.55-49.223-10.328-90.551-42.346-113.524-85.55zm78.467 0h57.847v75.127c-26.004-24.25-45.278-49.348-57.847-75.127z" fill="#ffffff" class="fill-000000"></path></svg>