<svg contentscripttype="text/ecmascript" viewBox="0 0 1600 2048" xml:space="preserve" xmlns="http://www.w3.org/2000/svg"><path d="M256 1472c0-17.333-6.333-32.333-19-45s-27.667-19-45-19c-18 0-33.167 6.333-45.5 19s-18.5 27.667-18.5 45c0 18 6.167 33.167 18.5 45.5S174 1536 192 1536c17.333 0 32.333-6.167 45-18.5s19-27.5 19-45.5zm160-512v640c0 17.333-6.333 32.333-19 45s-27.667 19-45 19H64c-17.333 0-32.333-6.333-45-19s-19-27.667-19-45V960c0-17.333 6.333-32.333 19-45s27.667-19 45-19h288c17.333 0 32.333 6.333 45 19s19 27.667 19 45zm1184 0c0 57.333-18.333 107-55 149 10 29.333 15 54.667 15 76 2 50.667-12.333 96.333-43 137 11.333 37.333 11.333 76.333 0 117-10 38-28 69.333-54 94 6 74.667-10.333 135-49 181-42.667 50.667-108.333 76.667-197 78h-129c-44 0-92-5.167-144-15.5s-92.5-20-121.5-29-69.167-22.167-120.5-39.5c-82-28.667-134.667-43.333-158-44-17.333-.667-32.333-7.167-45-19.5s-19-27.167-19-44.5V959c0-16.667 6-31.167 18-43.5s26.333-19.167 43-20.5c16-1.333 41.333-21 76-59s68.333-78.333 101-121c45.333-58 79-98 101-120 12-12 22.333-28 31-48s14.5-36.167 17.5-48.5S875 466 881 438c4.667-26 8.833-46.333 12.5-61s10.167-32 19.5-52 20.667-36.667 34-50c12.667-12.667 27.667-19 45-19 30.667 0 58.167 3.5 82.5 10.5s44.333 15.667 60 26 29 23.833 40 40.5 19 31.667 24 45 9 30 12 50 4.667 35 5 45 .5 23 .5 39c0 25.333-3.167 50.667-9.5 76s-12.667 45.333-19 60c-6.333 14.667-15.5 33.333-27.5 56-2 4-5.333 10-10 18s-8.333 15.333-11 22-5.333 14.667-8 24h277c52 0 97 19 135 57s57 83 57 135z" fill="#ffffff" class="fill-000000"></path></svg>